<?xml version="1.0" encoding="UTF-8"?>
<svg xmlns="http://www.w3.org/2000/svg" width="1047" height="152" viewBox="0 0 1047 152" fill="none">
  <g clip-path="url(#clip0_1_15)">
    <path d="M76 0H38C17.01 0 0 17.01 0 38V114H38V38H114V0H76Z" fill="#23CAFF"></path>
    <path d="M114 38V114H38V152H114C134.99 152 152 134.99 152 114V38H114Z" fill="#23CAFF"></path>
    <path d="M289.73 91.97C289.73 120.38 273.69 134.66 248.81 134.66C223.93 134.66 208.29 120.39 208.29 92.79V38H225.01V92.11C225.01 109.78 234.12 119.3 249.08 119.3C264.04 119.3 273.01 110.33 273.01 92.79V38H289.73V91.98V91.97Z" fill="#1E2229"></path>
    <path d="M330.38 38H313.66V133.17H330.38V38Z" fill="#1E2229"></path>
    <path d="M400 134.8C372.27 134.8 351.6 113.18 351.6 85.72C351.6 58.26 371.86 36.37 400.68 36.37C418.22 36.37 428.82 42.49 437.93 51.19L427.19 63.56C419.58 56.49 411.42 51.73 400.54 51.73C382.32 51.73 369.13 66.69 369.13 85.45C369.13 104.21 382.32 119.44 400.54 119.44C412.23 119.44 419.71 114.68 427.87 107.07L438.61 117.95C428.69 128.28 417.81 134.81 400 134.81" fill="#1E2229"></path>
    <path d="M620.93 38H604.21V133.17H620.93V38Z" fill="#1E2229"></path>
    <path d="M691.5 134.8C661.73 134.8 642.15 113.59 642.15 85.72C642.15 57.85 662.54 36.37 691.23 36.37C707.82 36.37 718.01 40.99 727.8 49.29L717.2 61.93C709.86 55.68 702.65 51.73 690.55 51.73C673.01 51.73 659.69 66.96 659.69 85.45C659.69 105.16 672.61 119.57 692.05 119.57C701.02 119.57 709.18 116.72 715.03 112.36V94.55H690.69L698.14 80H731.2V119.97C721.82 127.99 708.36 134.79 691.5 134.79" fill="#1E2229"></path>
    <path d="M770.62 38H753.9V133.17H770.62V38Z" fill="#1E2229"></path>
    <path d="M836.29 133.16H819.43V53.49H789.25V37.99H866.48V53.49H836.29V133.16Z" fill="#1E2229"></path>
    <path d="M979.33 37.99H996.05V117.94H1046.08V133.16H979.33V37.99Z" fill="#1E2229"></path>
    <path d="M532.42 37.99H496.94V113.49L513.66 105.92V53.22H532.42C552.4 53.22 565.46 66.95 565.46 85.71C565.46 104.47 552.41 117.93 532.42 117.93H530.58H496.93V133.16H532.41C562.32 133.16 582.98 112.36 582.98 85.44C582.98 58.52 562.32 37.99 532.41 37.99" fill="#1E2229"></path>
    <path d="M921.13 37.32H905.63L863.76 133.16H880.89L913.11 57.3L929.56 95.37H905.28L899.34 110.19H935.68L945.33 133.16H963.01L921.13 37.32Z" fill="#1E2229"></path>
  </g>
  <defs>
    <clipPath id="clip0_1_15">
      <rect width="1046.08" height="152" fill="white"></rect>
    </clipPath>
  </defs>
</svg>
